<svg xmlns="http://www.w3.org/2000/svg" height="40" width="40"><path d="M21.25 22.042Zm.583 16.458h-4.75l.584-.5q.583-.5 1.271-1.083.687-.584 1.25-1.084l.562-.5h1.167q3.791 0 7.041-2.125 3.25-2.125 5.125-5.375-3.625-.375-6.937-1.812-3.313-1.438-5.896-3.979-2.583-2.584-4-5.875-1.417-3.292-1.792-6.917-3.291 1.917-5.354 5.083-2.062 3.167-2.104 7v.396q0 .229.042.396l-.48.187q-.479.188-1.062.396-.583.209-1.062.396l-.48.188q-.083-.5-.104-.938-.021-.437-.021-.854 0-6.167 3.959-10.875 3.958-4.708 10.041-5.833-.666 4.125.5 8.083 1.167 3.958 4.167 6.958 2.958 2.959 6.917 4.125 3.958 1.167 8.125.542-1.084 6.125-5.813 10.062Q28 38.5 21.833 38.5ZM10 35.333h7.5q1.208 0 2.042-.833.833-.833.833-2 0-1.208-.813-2.042-.812-.833-1.979-.833h-1.916l-.75-1.792q-.625-1.458-1.959-2.333-1.333-.875-2.916-.875-2.25 0-3.834 1.563-1.583 1.562-1.583 3.77 0 2.25 1.563 3.813Q7.75 35.333 10 35.333Zm0 3.167q-3.542 0-6.042-2.5t-2.5-6.042q0-3.541 2.5-6.02 2.5-2.48 6.042-2.48 2.542 0 4.625 1.354 2.083 1.355 3.125 3.646 2.417.125 4.104 1.854 1.688 1.73 1.688 4.146 0 2.5-1.771 4.271T17.5 38.5Z"/></svg>